<svg xmlns="http://www.w3.org/2000/svg" width="200" height="300" viewBox="0 0 200 300">
  <rect width="100%" height="100%" fill="none"/>
  <ellipse cx="100" cy="150" rx="80" ry="120" fill="#fce4ec" stroke="#d81b60" stroke-width="3"/>
  
  <!-- Верхний узор -->
  <path d="M40,90 Q60,110 80,90 Q100,70 120,90 Q140,110 160,90" stroke="#d81b60" stroke-width="4" fill="none"/>
  <circle cx="60" cy="100" r="5" fill="#d81b60"/>
  <circle cx="100" cy="100" r="5" fill="#d81b60"/>
  <circle cx="140" cy="100" r="5" fill="#d81b60"/>

  <!-- Средний узор -->
  <path d="M40,150 L60,170 L80,150 L100,170 L120,150 L140,170 L160,150" stroke="#8e24aa" stroke-width="4" fill="none"/>
  <circle cx="60" cy="160" r="4" fill="#8e24aa"/>
  <circle cx="100" cy="160" r="4" fill="#8e24aa"/>
  <circle cx="140" cy="160" r="4" fill="#8e24aa"/>

  <!-- Нижний узор -->
  <path d="M40,210 Q60,230 80,210 Q100,190 120,210 Q140,230 160,210" stroke="#3949ab" stroke-width="4" fill="none"/>
  <circle cx="60" cy="220" r="6" fill="#3949ab"/>
  <circle cx="100" cy="220" r="6" fill="#3949ab"/>
  <circle cx="140" cy="220" r="6" fill="#3949ab"/>

  <!-- Внутренний эллипс -->
  <ellipse cx="100" cy="150" rx="60" ry="90" fill="none" stroke="#00000020" stroke-width="6"/>
</svg>