<?xml version="1.0" ?>
<svg xmlns="http://www.w3.org/2000/svg" width="200" height="300" viewBox="0 0 200 300">
  <rect width="100%" height="100%" fill="none"/>
  <ellipse cx="100" cy="150" rx="80" ry="120" fill="#f3e5f5" stroke="#7b1fa2" stroke-width="3"/>
  <path d="M40,110 L55,120 L70,110 L85,120 L100,110 L115,120 L130,110 L145,120 L160,110" stroke="#fdd365" stroke-width="4" fill="none"/>
  <circle cx="60" cy="150" r="5" fill="#fdd365"/>
  <circle cx="85" cy="150" r="5" fill="#fdd365"/>
  <circle cx="110" cy="150" r="5" fill="#fdd365"/>
  <circle cx="135" cy="150" r="5" fill="#fdd365"/>
  <path d="M40,190 Q60,200 80,190 Q100,180 120,190 Q140,200 160,190" stroke="#fdd365" stroke-width="4" fill="none"/>
  <circle cx="60" cy="230" r="3" fill="#fdd365"/>
  <circle cx="100" cy="230" r="3" fill="#fdd365"/>
  <circle cx="140" cy="230" r="3" fill="#fdd365"/>
  <ellipse cx="100" cy="160" rx="70" ry="110" fill="none" stroke="#00000010" stroke-width="8"/>
</svg>