<?xml version="1.0" ?>
<svg xmlns="http://www.w3.org/2000/svg" width="200" height="300" viewBox="0 0 200 300">
  <rect width="100%" height="100%" fill="none"/>
  <ellipse cx="100" cy="150" rx="80" ry="120" fill="#fff7dc" stroke="#d4a017" stroke-width="3"/>
  <path d="M40,110 L55,120 L70,110 L85,120 L100,110 L115,120 L130,110 L145,120 L160,110" stroke="#f28c8c" stroke-width="4" fill="none"/>
  <circle cx="60" cy="150" r="5" fill="#f28c8c"/>
  <circle cx="85" cy="150" r="5" fill="#f28c8c"/>
  <circle cx="110" cy="150" r="5" fill="#f28c8c"/>
  <circle cx="135" cy="150" r="5" fill="#f28c8c"/>
  <path d="M40,190 Q60,200 80,190 Q100,180 120,190 Q140,200 160,190" stroke="#f28c8c" stroke-width="4" fill="none"/>
  <circle cx="60" cy="230" r="3" fill="#f28c8c"/>
  <circle cx="100" cy="230" r="3" fill="#f28c8c"/>
  <circle cx="140" cy="230" r="3" fill="#f28c8c"/>
  <ellipse cx="100" cy="160" rx="70" ry="110" fill="none" stroke="#00000010" stroke-width="8"/>
</svg>